<svg width="54" height="14" viewBox="0 0 54 14" xmlns="http://www.w3.org/2000/svg" xmlns:xlink="http://www.w3.org/1999/xlink"><defs><path d="M6 11.5C2.962 11.5.5 9.038.5 6S2.962.5 6 .5s5.5 2.462 5.5 5.5-2.462 5.5-5.5 5.5z" id="a"/><linearGradient x1="21.328%" y1="21.111%" x2="21.328%" y2="163.333%" id="b"><stop stop-color="#FF5E51" offset="0%"/><stop stop-color="#FF5E51" offset="100%"/></linearGradient><path d="M6 11.5C2.962 11.5.5 9.038.5 6S2.962.5 6 .5s5.5 2.462 5.5 5.5-2.462 5.5-5.5 5.5z" id="d"/><linearGradient x1="21.797%" y1="21.111%" x2="21.797%" y2="22.778%" id="e"><stop stop-color="#FF5E51" offset="0%"/><stop stop-color="#FF5E51" offset="100%"/></linearGradient><path d="M6 11.5C2.962 11.5.5 9.038.5 6S2.962.5 6 .5s5.5 2.462 5.5 5.5-2.462 5.5-5.5 5.5z" id="g"/><linearGradient x1="22.891%" y1="21.111%" x2="22.891%" y2="163.333%" id="h"><stop stop-color="#FFC100" offset="0%"/><stop stop-color="#FFC100" offset="100%"/></linearGradient><path d="M6 11.5C2.962 11.5.5 9.038.5 6S2.962.5 6 .5s5.5 2.462 5.5 5.5-2.462 5.5-5.5 5.5z" id="j"/><linearGradient x1="23.359%" y1="21.111%" x2="23.359%" y2="22.778%" id="k"><stop stop-color="#FFC100" offset="0%"/><stop stop-color="#FFC100" offset="100%"/></linearGradient><path d="M6 11.5C2.962 11.5.5 9.038.5 6S2.962.5 6 .5s5.5 2.462 5.5 5.5-2.462 5.5-5.5 5.5z" id="m"/><linearGradient x1="24.453%" y1="21.111%" x2="24.453%" y2="163.333%" id="n"><stop stop-color="#0ECE32" offset="0%"/><stop stop-color="#0ECE32" offset="100%"/></linearGradient><path d="M6 11.5C2.962 11.5.5 9.038.5 6S2.962.5 6 .5s5.5 2.462 5.5 5.5-2.462 5.5-5.5 5.5z" id="p"/><linearGradient x1="24.922%" y1="21.111%" x2="24.922%" y2="22.778%" id="q"><stop stop-color="#0ECE32" offset="0%"/><stop stop-color="#0ECE32" offset="100%"/></linearGradient></defs><g fill="none" fill-rule="evenodd"><g transform="translate(1 1)"><mask id="c" fill="#fff"><use xlink:href="#a"/></mask><path fill="url(#b)" mask="url(#c)" d="M-273 568h1280v-720H-273"/></g><g transform="translate(1 1)"><mask id="f" fill="#fff"><use xlink:href="#d"/></mask><path fill="url(#e)" mask="url(#f)" d="M-273 568h1280v-720H-273"/></g><path d="M7 13c3.314 0 6-2.686 6-6s-2.686-6-6-6-6 2.686-6 6 2.686 6 6 6z" stroke="#E4443A" stroke-width="2"/><g transform="translate(21 1)"><mask id="i" fill="#fff"><use xlink:href="#g"/></mask><path fill="url(#h)" mask="url(#i)" d="M-293 568H987v-720H-293"/></g><g transform="translate(21 1)"><mask id="l" fill="#fff"><use xlink:href="#j"/></mask><path fill="url(#k)" mask="url(#l)" d="M-293 568H987v-720H-293"/></g><path d="M27 13c3.314 0 6-2.686 6-6s-2.686-6-6-6-6 2.686-6 6 2.686 6 6 6z" stroke="#E2A200" stroke-width="2"/><g><g transform="translate(41 1)"><mask id="o" fill="#fff"><use xlink:href="#m"/></mask><path fill="url(#n)" mask="url(#o)" d="M-313 568H967v-720H-313"/></g><g transform="translate(41 1)"><mask id="r" fill="#fff"><use xlink:href="#p"/></mask><path fill="url(#q)" mask="url(#r)" d="M-313 568H967v-720H-313"/></g></g><path d="M47 13c3.314 0 6-2.686 6-6s-2.686-6-6-6-6 2.686-6 6 2.686 6 6 6z" stroke="#00AE19" stroke-width="2"/></g></svg>
